HIERARCHY
ROOT Hips
{
	OFFSET 0.00000 0.00000 0.00000
	CHANNELS 6 Xposition Yposition Zposition Zrotation Yrotation Xrotation 
	JOINT LHipJoint
	{
		OFFSET 0 0 0
		CHANNELS 3 Zrotation Yrotation Xrotation
		JOINT LeftUpLeg
		{
			OFFSET 1.57358 -1.76629 0.73362
			CHANNELS 3 Zrotation Yrotation Xrotation
			JOINT LeftLeg
			{
				OFFSET 2.40600 -6.61045 0.00000
				CHANNELS 3 Zrotation Yrotation Xrotation
				JOINT LeftFoot
				{
					OFFSET 2.66168 -7.31291 0.00000
					CHANNELS 3 Zrotation Yrotation Xrotation
					JOINT LeftToeBase
					{
						OFFSET 0.20870 -0.57341 2.12506
						CHANNELS 3 Zrotation Yrotation Xrotation
						End Site
						{
							OFFSET 0.00000 -0.00000 1.10557
						}
					}
				}
			}
		}
	}
	JOINT RHipJoint
	{
		OFFSET 0 0 0
		CHANNELS 3 Zrotation Yrotation Xrotation
		JOINT RightUpLeg
		{
			OFFSET -1.49299 -1.76629 0.73362
			CHANNELS 3 Zrotation Yrotation Xrotation
			JOINT RightLeg
			{
				OFFSET -2.43663 -6.69460 0.00000
				CHANNELS 3 Zrotation Yrotation Xrotation
				JOINT RightFoot
				{
					OFFSET -2.62959 -7.22474 0.00000
					CHANNELS 3 Zrotation Yrotation Xrotation
					JOINT RightToeBase
					{
						OFFSET -0.25784 -0.70841 2.21862
						CHANNELS 3 Zrotation Yrotation Xrotation
						End Site
						{
							OFFSET -0.00000 -0.00000 1.16452
						}
					}
				}
			}
		}
	}
	JOINT LowerBack
	{
		OFFSET 0 0 0
		CHANNELS 3 Zrotation Yrotation Xrotation
		JOINT Spine
		{
			OFFSET -0.00034 2.12399 -0.25450
			CHANNELS 3 Zrotation Yrotation Xrotation
			JOINT Spine1
			{
				OFFSET 0.05594 2.14379 -0.03318
				CHANNELS 3 Zrotation Yrotation Xrotation
				JOINT Neck
				{
					OFFSET 0 0 0
					CHANNELS 3 Zrotation Yrotation Xrotation
					JOINT Neck1
					{
						OFFSET -0.09835 1.62725 0.24211
						CHANNELS 3 Zrotation Yrotation Xrotation
						JOINT Head
						{
							OFFSET 0.10849 1.66041 -0.22648
							CHANNELS 3 Zrotation Yrotation Xrotation
							End Site
							{
								OFFSET 0.04385 1.68267 -0.10541
							}
						}
					}
				}
				JOINT LeftShoulder
				{
					OFFSET 0 0 0
					CHANNELS 3 Zrotation Yrotation Xrotation
					JOINT LeftArm
					{
						OFFSET 3.29108 0.79398 -0.68179
						CHANNELS 3 Zrotation Yrotation Xrotation
						JOINT LeftForeArm
						{
							OFFSET 5.15310 -0.00000 -0.00000
							CHANNELS 3 Zrotation Yrotation Xrotation
							JOINT LeftHand
							{
								OFFSET 3.75138 -0.00000 -0.00000
								CHANNELS 3 Zrotation Yrotation Xrotation
								JOINT LeftFingerBase
								{
									OFFSET 0 0 0
									CHANNELS 3 Zrotation Yrotation Xrotation
									JOINT LeftHandIndex1
									{
										OFFSET 0.52917 -0.00000 0.00000
										CHANNELS 3 Zrotation Yrotation Xrotation
										End Site
										{
											OFFSET 0.42663 -0.00000 0.00000
										}
									}
								}
								JOINT LThumb
								{
									OFFSET 0 0 0
									CHANNELS 3 Zrotation Yrotation Xrotation
									End Site
									{
										OFFSET 0.43315 -0.00000 0.43315
									}
								}
							}
						}
					}
				}
				JOINT RightShoulder
				{
					OFFSET 0 0 0
					CHANNELS 3 Zrotation Yrotation Xrotation
					JOINT RightArm
					{
						OFFSET -3.07414 1.06285 -0.44338
						CHANNELS 3 Zrotation Yrotation Xrotation
						JOINT RightForeArm
						{
							OFFSET -5.29613 -0.00000 0.00000
							CHANNELS 3 Zrotation Yrotation Xrotation
							JOINT RightHand
							{
								OFFSET -3.76144 -0.00000 -0.00000
								CHANNELS 3 Zrotation Yrotation Xrotation
								JOINT RightFingerBase
								{
									OFFSET 0 0 0
									CHANNELS 3 Zrotation Yrotation Xrotation
									JOINT RightHandIndex1
									{
										OFFSET -0.74732 -0.00000 0.00000
										CHANNELS 3 Zrotation Yrotation Xrotation
										End Site
										{
											OFFSET -0.60251 -0.00000 0.00000
										}
									}
								}
								JOINT RThumb
								{
									OFFSET 0 0 0
									CHANNELS 3 Zrotation Yrotation Xrotation
									End Site
									{
										OFFSET -0.61171 -0.00000 0.61171
									}
								}
							}
						}
					}
				}
			}
		}
	}
}
MOTION
Frames: 12
Frame Time: 0.0909091
0.00 0.00 0.00 0 0 0 0 0 0 -21 0 0 0 0 0 0 0 0 0 0 0 0 0 0 21 0 0 0 0 0 0 0 0 0 0 0 0 0 0 0 0 0 0 0 0 0 0 -16 0 0 21 0 0 11 0 0 0 -8 0 0 0 0 0 0 0 0 0 0 0 0 0 0 0 0 0 0 0 0 8 0 0 0 0 0 0 0 0 0 0 0 0 0 0 0 0 0
0.00 0.00 0.00 6.1915 -2.8987 4.1975 0.0000 0.0000 0.0000 -4.4696 -15.3425 -35.6539 13.7071 19.0228 71.3078 0.1469 1.2196 -7.7938 0.6778 -5.2641 -14.6633 0.0000 0.0000 0.0000 38.0163 4.6057 -0.4458 -3.3239 -11.2017 32.9632 -0.9220 -5.0429 -20.6379 -0.4350 -4.2323 11.7312 -1.5448 2.4132 10.5896 -2.2542 2.8567 -1.1565 -1.9808 1.4090 -7.1288 -13.8986 -9.2635 -15.1148 9.3577 -11.3696 16.6695 3.9485 -5.3546 9.0684 0.0000 -0.0000 0.0000 -85.6390 20.3813 38.0979 100.7170 -59.5615 -69.2676 -0.0000 0.0000 -31.7487 14.7191 11.0155 2.8736 -7.1250 0.0000 -0.0000 -10.9739 41.1101 1.0672 0.0000 -0.0000 0.0000 82.3906 -14.6429 39.5395 -119.1531 56.5314 -84.9534 0.0000 -0.0000 -15.9326 -15.1491 20.6934 -5.4649 7.1250 -0.0000 -0.0000 8.5441 -8.7988 7.2195
0.00 0.00 0.00 8.4575 -4.3541 4.4165 0.0000 0.0000 0.0000 -8.4843 -17.4200 -37.3789 8.5094 16.4814 54.3775 0.2563 -0.6197 -9.3624 1.0354 -6.4719 -18.1599 0.0000 0.0000 0.0000 35.1095 1.7592 7.7257 -2.5633 -9.9521 28.8218 -0.0768 -3.5845 -7.7710 -0.0008 -0.1823 0.5009 -0.6791 3.4663 7.3875 -3.2684 4.3978 -1.1482 -3.5339 2.1483 -5.1279 -14.8773 -10.0675 -14.9090 8.6565 -12.1704 17.1955 3.7315 -5.8624 9.3335 -0.0000 0.0000 0.0000 -87.3680 23.9608 36.8134 104.4065 -59.2011 -72.4429 -0.0000 0.0000 -33.3520 11.2000 13.4796 2.6426 -7.1250 0.0000 -0.0000 -14.6697 43.2204 0.6594 -0.0000 0.0000 0.0000 80.7851 -12.5660 40.6554 -122.1914 55.6972 -87.4758 0.0000 -0.0000 -11.7569 -14.1982 22.3749 -5.5012 7.1250 -0.0000 -0.0000 9.2177 -7.2172 8.0948
0.00 0.00 0.00 9.3506 -3.6753 3.9782 0.0000 0.0000 0.0000 -10.0480 -21.0110 -35.7342 4.6785 13.0123 39.4144 -0.1323 -9.1708 -3.6199 2.6008 -10.0190 -29.0382 0.0000 0.0000 0.0000 33.4143 -0.7912 14.2814 -1.7561 -8.3383 23.7465 -0.2683 -3.5577 9.2077 -0.0809 -1.8352 5.0505 0.9666 3.5070 6.7757 -3.9949 4.5701 -1.7562 -5.2195 2.1704 -5.2240 -14.4092 -10.4336 -14.3874 8.0496 -12.7878 17.8164 3.3681 -6.1966 9.4564 0.0000 0.0000 0.0000 -88.3904 27.2354 34.9166 108.1665 -58.7155 -75.6648 -0.0000 0.0000 -31.2078 9.7086 14.9222 2.5226 -7.1250 0.0000 -0.0000 -16.4250 44.4636 0.2237 0.0000 0.0000 0.0000 81.2160 -13.2458 41.1304 -122.4788 55.6124 -87.7132 0.0000 -0.0000 -9.9928 -13.0802 24.0053 -5.3997 7.1250 -0.0000 -0.0000 9.9857 -5.7218 9.0826
0.00 0.00 0.00 8.5144 -4.2934 2.9194 0.0000 0.0000 0.0000 -10.8427 -21.5202 -33.4621 2.1014 9.0743 26.0279 -0.3988 -12.5684 10.9179 0.6002 -4.9595 -13.7931 0.0000 0.0000 0.0000 35.6139 2.2981 15.9568 -4.4091 -12.6857 38.2032 -0.4181 -4.2358 11.5000 -0.1702 -2.6578 7.3274 2.6557 3.4810 6.8773 -2.4827 4.7645 -2.7148 -4.6586 2.1894 -6.2665 -13.8781 -10.5977 -14.8021 7.1475 -12.9702 18.9530 2.9208 -6.3272 9.8477 -0.0000 -0.0000 0.0000 -89.4362 28.3171 35.2682 116.8209 -57.0992 -83.0014 -0.0000 0.0000 -27.3524 7.2452 14.2658 1.7944 -7.1250 0.0000 -0.0000 -18.3786 43.5618 0.6766 -0.0000 -0.0000 0.0000 81.0787 -13.3991 41.4510 -117.2519 56.9988 -83.3630 0.0000 -0.0000 -10.2384 -12.8572 23.3797 -5.1753 7.1250 -0.0000 -0.0000 10.0962 -6.3734 9.0583
0.00 0.00 0.00 9.4834 -7.8668 0.6574 0.0000 0.0000 0.0000 -12.0525 -21.2652 -28.5987 2.4949 9.8285 28.4233 -0.6471 -14.0993 6.0816 0.6780 -5.2651 -14.6663 0.0000 0.0000 0.0000 33.7580 4.8499 12.0603 -9.2051 -16.9379 56.7969 -0.1586 -5.4782 7.5286 -0.1085 -2.1238 5.8480 1.6071 3.6477 8.4976 -1.9459 4.9282 -1.9412 -3.6197 2.3212 -6.4891 -13.3707 -10.5043 -15.7067 7.7062 -12.8472 17.2660 3.0323 -6.1506 9.4061 0.0000 -0.0000 0.0000 -88.4114 25.5065 37.2603 121.9832 -55.7579 -87.3038 -0.0000 0.0000 -26.8707 8.6696 12.9709 1.9602 -7.1250 0.0000 -0.0000 -16.7330 42.4670 1.0787 0.0000 -0.0000 0.0000 82.7664 -11.3588 41.3592 -111.0546 58.2569 -78.1271 0.0000 -0.0000 -9.7639 -12.4845 24.4406 -5.2342 7.1250 -0.0000 -0.0000 10.3711 -5.3615 9.5174
0.00 0.00 0.00 11.6408 -11.0700 -1.9773 0.0000 0.0000 0.0000 -14.4355 -20.2678 -23.3752 3.7400 11.8062 35.0497 -0.4122 -16.3631 -6.6765 0.4044 -4.0827 -11.3094 0.0000 0.0000 0.0000 28.7109 6.5140 4.1503 -15.4688 -19.5005 76.6450 0.0102 -5.7255 3.7062 -0.2645 -3.3084 9.1385 -1.3258 3.2197 11.5965 -1.5071 3.9890 -1.1358 -1.5696 1.9626 -7.6965 -12.9017 -9.9617 -16.5234 8.1548 -12.1021 16.0124 3.2134 -5.7069 9.0326 -0.0000 -0.0000 0.0000 -87.2803 21.4144 39.5020 126.5154 -54.3077 -91.0188 -0.0000 0.0000 -25.6901 10.7921 14.0103 2.6422 -7.1250 0.0000 -0.0000 -15.1836 43.6968 0.5006 -0.0000 -0.0000 0.0000 85.5349 -11.1156 41.2275 -107.5337 58.8059 -75.1238 0.0000 -0.0000 -10.4600 -14.6350 23.2490 -5.8850 7.1250 -0.0000 -0.0000 8.9872 -6.2830 8.0517
0.00 0.00 0.00 18.8887 -14.7463 -3.4924 0.0000 0.0000 0.0000 -22.9464 -15.5639 -18.3050 4.6295 12.9540 39.1967 0.6824 -14.8378 -16.8588 0.7442 -5.5107 -15.3712 0.0000 0.0000 0.0000 13.6639 8.1617 -12.1885 -22.0643 -19.8975 96.0455 0.0011 -2.0228 -2.7922 -0.2498 -3.2161 8.8809 -9.2275 2.7202 12.4367 -2.7793 2.0244 -0.4952 1.8333 1.2836 -7.7733 -12.3616 -9.5609 -19.5712 8.7651 -11.4067 15.8650 3.3517 -5.1960 9.4451 0.0000 -0.0000 0.0000 -84.6114 13.7343 41.1785 127.6255 -53.9094 -91.9181 -0.0000 0.0000 -28.0304 9.6274 11.6378 1.9598 -7.1250 0.0000 -0.0000 -15.5292 41.2657 1.4700 0.0000 -0.0000 0.0000 89.2546 -12.2693 40.8081 -106.6149 58.9308 -74.3372 0.0000 -0.0000 -11.1503 -16.0192 23.2135 -6.4564 7.1250 -0.0000 -0.0000 8.1246 -6.1353 7.2851
0.00 0.00 0.00 18.4572 -27.0732 -2.8629 0.0000 0.0000 0.0000 -25.4417 -6.7610 3.2271 2.9767 10.6573 31.1326 0.1406 -4.8322 -6.9984 4.0748 -12.2593 -36.6554 0.0000 0.0000 0.0000 8.0524 13.4503 -42.0666 -17.7064 -19.8734 83.2802 -0.3152 6.1995 -10.2488 -0.2982 3.5112 -9.7053 -8.8021 -1.4335 11.9873 -0.8363 -3.2578 -0.8872 4.6450 -1.2639 -7.2643 -10.5982 -5.3972 -21.9018 7.4541 -5.6894 17.2712 3.5003 -2.5221 9.5908 0.0000 -0.0000 0.0000 -87.5791 9.9121 31.6738 133.1396 -51.6480 -96.3111 -0.0000 0.0000 -29.2903 11.1100 9.5477 1.8656 -7.1250 0.0000 -0.0000 -13.7470 39.3415 1.9601 0.0000 -0.0000 0.0000 84.0710 -24.2690 48.5002 -117.3782 56.9690 -83.4690 0.0000 -0.0000 -12.8262 -9.4414 24.6833 -3.9724 7.1250 -0.0000 -0.0000 12.2355 -5.4723 11.2791
0.00 0.00 0.00 19.3502 -31.2185 -3.2115 0.0000 0.0000 0.0000 -26.1298 -4.0584 6.8715 2.1533 9.1784 26.3549 0.1273 -4.5278 9.9092 3.4988 -11.4617 -33.8535 0.0000 0.0000 0.0000 8.5301 15.6491 -43.6193 -13.4066 -18.9241 70.3836 -0.3964 4.8101 -11.2188 -0.6712 5.2389 -14.5913 -9.3126 -1.4163 11.2050 -1.1929 -3.2537 -0.9433 4.5122 -1.2702 -6.8775 -9.9301 -4.9485 -22.0392 7.4627 -5.2903 17.5505 3.4592 -2.2902 9.6538 -0.0000 0.0000 0.0000 -87.2935 10.1031 30.1357 133.2395 -51.6024 -96.3894 -0.0000 0.0000 -28.0657 12.9642 9.2984 2.1302 -7.1250 0.0000 -0.0000 -12.1189 39.2373 1.7509 -0.0000 0.0000 0.0000 84.5352 -25.9533 47.6980 -117.6034 56.9155 -83.6577 0.0000 -0.0000 -12.5470 -10.8618 24.6151 -4.5694 7.1250 -0.0000 -0.0000 11.3691 -5.3814 10.4655
0.00 0.00 0.00 18.9701 -35.5709 -3.6125 0.0000 0.0000 0.0000 -26.4358 -3.4047 13.3252 1.3033 7.2323 20.4055 1.8626 -3.4715 27.2179 1.9063 -8.6680 -24.7623 0.0000 0.0000 0.0000 11.6563 16.0145 -41.6694 -7.4106 -15.6681 50.4106 -0.3230 3.1379 -10.1149 -0.3709 3.9118 -10.8286 -9.3728 -1.2815 11.5781 -0.3056 -3.0872 -1.4483 5.5019 -1.1100 -7.6100 -10.5508 -4.6086 -20.8053 6.6459 -4.5552 17.2237 3.3860 -2.1051 9.2465 -0.0000 -0.0000 0.0000 -88.6460 12.1595 29.5769 133.0864 -51.6723 -96.2693 -0.0000 0.0000 -26.5107 11.7725 9.7512 2.0216 -7.1250 0.0000 -0.0000 -13.2303 39.5950 1.7990 -0.0000 -0.0000 0.0000 83.7779 -28.3541 45.2159 -117.9800 56.8246 -83.9731 0.0000 -0.0000 -11.2489 -11.4819 24.2087 -4.7613 7.1250 -0.0000 -0.0000 10.9757 -5.7117 10.0187
0.00 0.00 0.00 20.3664 -38.0415 -4.4077 0.0000 0.0000 0.0000 -28.9677 -6.1074 15.3371 1.7049 8.2224 23.3916 2.7239 -1.6629 31.8572 0.0970 2.0085 5.5291 0.0000 0.0000 0.0000 13.7042 13.5769 -38.4343 -3.0090 -10.7097 31.3068 -0.0044 -2.2813 -3.5606 -0.0141 0.7664 -2.1064 -9.3777 -1.2966 11.1321 -0.6727 -3.1119 -1.7914 5.1010 -1.1142 -7.7454 -11.4512 -4.7004 -19.9243 6.6689 -4.5223 17.2772 3.5524 -2.1656 9.1315 0.0000 0.0000 0.0000 -88.1820 13.4981 30.9095 132.2129 -52.0630 -95.5823 -0.0000 0.0000 -27.2849 12.8179 9.4744 2.1448 -7.1250 0.0000 -0.0000 -12.2803 39.4019 1.7244 0.0000 0.0000 0.0000 84.9695 -30.0832 41.8650 -120.2982 56.2300 -85.9069 0.0000 -0.0000 -11.8013 -12.7791 24.2345 -5.3189 7.1250 -0.0000 -0.0000 10.1812 -5.5304 9.3040
